<mxfile host="app.diagrams.net" modified="2021-08-31T11:04:30.082Z" agent="5.0 (Windows NT 10.0; Win64; x64) AppleWebKit/537.36 (KHTML, like Gecko) Chrome/92.0.4515.159 Safari/537.36" etag="UnMygwSdmdvdE8hPTgzQ" version="14.7.1" type="github">
  <diagram name="Page-1" id="2a216829-ef6e-dabb-86c1-c78162f3ba2b">
    <mxGraphModel dx="1038" dy="489" grid="1" gridSize="10" guides="1" tooltips="1" connect="1" arrows="1" fold="1" page="1" pageScale="1" pageWidth="850" pageHeight="1100" background="none" math="0" shadow="0">
      <root>
        <mxCell id="0" />
        <mxCell id="1" parent="0" />
        <mxCell id="7a84cebc1def654-1" value="" style="shape=mxgraph.bpmn.shape;html=1;verticalLabelPosition=bottom;labelBackgroundColor=#ffffff;verticalAlign=top;perimeter=ellipsePerimeter;outline=standard;symbol=general;" parent="1" vertex="1">
          <mxGeometry x="278" y="265" width="50" height="50" as="geometry" />
        </mxCell>
        <mxCell id="7a84cebc1def654-2" value="System receive shipping guides files" style="shape=ext;rounded=1;html=1;whiteSpace=wrap;" parent="1" vertex="1">
          <mxGeometry x="360" y="250" width="120" height="80" as="geometry" />
        </mxCell>
        <mxCell id="7a84cebc1def654-3" value="Put references and link shipping guides on AX" style="shape=ext;rounded=1;html=1;whiteSpace=wrap;" parent="1" vertex="1">
          <mxGeometry x="522" y="250" width="120" height="80" as="geometry" />
        </mxCell>
        <mxCell id="7a84cebc1def654-8" value="Verification of shipping guides data and receipt on PO" style="shape=ext;rounded=1;html=1;whiteSpace=wrap;" parent="1" vertex="1">
          <mxGeometry x="523" y="368" width="120" height="80" as="geometry" />
        </mxCell>
        <mxCell id="yvd3gltn9VmsAaINUpFN-8" style="edgeStyle=orthogonalEdgeStyle;rounded=0;orthogonalLoop=1;jettySize=auto;html=1;entryX=0;entryY=0.5;entryDx=0;entryDy=0;" edge="1" parent="1" source="7a84cebc1def654-9" target="7a84cebc1def654-8">
          <mxGeometry relative="1" as="geometry">
            <Array as="points">
              <mxPoint x="503" y="515" />
              <mxPoint x="503" y="408" />
            </Array>
          </mxGeometry>
        </mxCell>
        <mxCell id="7a84cebc1def654-9" value="" style="shape=mxgraph.bpmn.shape;html=1;verticalLabelPosition=bottom;labelBackgroundColor=#ffffff;verticalAlign=top;perimeter=rhombusPerimeter;background=gateway;outline=none;symbol=parallelGw;" parent="1" vertex="1">
          <mxGeometry x="558" y="490" width="50" height="50" as="geometry" />
        </mxCell>
        <mxCell id="7a84cebc1def654-14" value="Receive" style="html=1;whiteSpace=wrap;rounded=1;" parent="1" vertex="1">
          <mxGeometry x="523" y="580" width="120" height="80" as="geometry" />
        </mxCell>
        <mxCell id="7a84cebc1def654-26" value="" style="shape=mxgraph.bpmn.shape;html=1;verticalLabelPosition=bottom;labelBackgroundColor=#ffffff;verticalAlign=top;perimeter=ellipsePerimeter;outline=end;symbol=general;" parent="1" vertex="1">
          <mxGeometry x="558" y="950" width="50" height="50" as="geometry" />
        </mxCell>
        <mxCell id="7a84cebc1def654-36" style="edgeStyle=orthogonalEdgeStyle;rounded=0;html=1;jettySize=auto;orthogonalLoop=1;" parent="1" source="7a84cebc1def654-1" target="7a84cebc1def654-2" edge="1">
          <mxGeometry relative="1" as="geometry" />
        </mxCell>
        <mxCell id="7a84cebc1def654-39" style="edgeStyle=orthogonalEdgeStyle;rounded=0;html=1;jettySize=auto;orthogonalLoop=1;" parent="1" source="7a84cebc1def654-2" target="7a84cebc1def654-3" edge="1">
          <mxGeometry relative="1" as="geometry" />
        </mxCell>
        <mxCell id="7a84cebc1def654-40" style="edgeStyle=orthogonalEdgeStyle;rounded=0;html=1;jettySize=auto;orthogonalLoop=1;entryX=0.5;entryY=0;entryDx=0;entryDy=0;" parent="1" source="7a84cebc1def654-14" target="yvd3gltn9VmsAaINUpFN-4" edge="1">
          <mxGeometry relative="1" as="geometry">
            <mxPoint x="970" y="290" as="targetPoint" />
          </mxGeometry>
        </mxCell>
        <mxCell id="7a84cebc1def654-47" style="edgeStyle=orthogonalEdgeStyle;rounded=0;html=1;jettySize=auto;orthogonalLoop=1;" parent="1" source="7a84cebc1def654-3" edge="1">
          <mxGeometry relative="1" as="geometry">
            <mxPoint x="582" y="370" as="targetPoint" />
          </mxGeometry>
        </mxCell>
        <mxCell id="7a84cebc1def654-49" style="edgeStyle=orthogonalEdgeStyle;rounded=0;html=1;jettySize=auto;orthogonalLoop=1;" parent="1" source="7a84cebc1def654-8" target="7a84cebc1def654-9" edge="1">
          <mxGeometry relative="1" as="geometry" />
        </mxCell>
        <mxCell id="7a84cebc1def654-50" style="edgeStyle=orthogonalEdgeStyle;rounded=0;html=1;jettySize=auto;orthogonalLoop=1;entryX=0.5;entryY=0;entryDx=0;entryDy=0;exitX=0.5;exitY=1;exitDx=0;exitDy=0;" parent="1" source="7a84cebc1def654-9" target="7a84cebc1def654-14" edge="1">
          <mxGeometry relative="1" as="geometry">
            <Array as="points">
              <mxPoint x="583" y="560" />
              <mxPoint x="583" y="560" />
            </Array>
            <mxPoint x="583" y="550" as="sourcePoint" />
          </mxGeometry>
        </mxCell>
        <mxCell id="yvd3gltn9VmsAaINUpFN-1" value="No" style="text;html=1;align=center;verticalAlign=middle;resizable=0;points=[];autosize=1;strokeColor=none;" vertex="1" parent="1">
          <mxGeometry x="522" y="490" width="30" height="20" as="geometry" />
        </mxCell>
        <mxCell id="yvd3gltn9VmsAaINUpFN-2" value="Yes" style="text;html=1;align=center;verticalAlign=middle;resizable=0;points=[];autosize=1;strokeColor=none;" vertex="1" parent="1">
          <mxGeometry x="552" y="540" width="30" height="20" as="geometry" />
        </mxCell>
        <mxCell id="yvd3gltn9VmsAaINUpFN-3" value="Data is correct?" style="text;html=1;align=center;verticalAlign=middle;resizable=0;points=[];autosize=1;strokeColor=none;" vertex="1" parent="1">
          <mxGeometry x="590" y="520" width="100" height="20" as="geometry" />
        </mxCell>
        <mxCell id="yvd3gltn9VmsAaINUpFN-9" style="edgeStyle=orthogonalEdgeStyle;rounded=0;orthogonalLoop=1;jettySize=auto;html=1;" edge="1" parent="1" source="yvd3gltn9VmsAaINUpFN-4" target="yvd3gltn9VmsAaINUpFN-5">
          <mxGeometry relative="1" as="geometry" />
        </mxCell>
        <mxCell id="yvd3gltn9VmsAaINUpFN-4" value="Create charges or distribute charges from import process" style="html=1;whiteSpace=wrap;rounded=1;" vertex="1" parent="1">
          <mxGeometry x="523" y="699" width="120" height="80" as="geometry" />
        </mxCell>
        <mxCell id="yvd3gltn9VmsAaINUpFN-7" style="edgeStyle=orthogonalEdgeStyle;rounded=0;orthogonalLoop=1;jettySize=auto;html=1;exitX=0.5;exitY=1;exitDx=0;exitDy=0;" edge="1" parent="1" source="yvd3gltn9VmsAaINUpFN-5" target="7a84cebc1def654-26">
          <mxGeometry relative="1" as="geometry" />
        </mxCell>
        <mxCell id="yvd3gltn9VmsAaINUpFN-5" value="Invoicing" style="html=1;whiteSpace=wrap;rounded=1;" vertex="1" parent="1">
          <mxGeometry x="523" y="830" width="120" height="80" as="geometry" />
        </mxCell>
      </root>
    </mxGraphModel>
  </diagram>
</mxfile>
